<svg xmlns="http://www.w3.org/2000/svg" viewBox="0 0 64 64" role="img" aria-label="GhostRoute fox">
  <defs>
    <linearGradient id="foxGrad" x1="0%" y1="0%" x2="100%" y2="100%">
      <stop offset="0%" style="stop-color:#ff7139"/>
      <stop offset="50%" style="stop-color:#e259ff"/>
      <stop offset="100%" style="stop-color:#7c5cff"/>
    </linearGradient>
  </defs>
  <path fill="url(#foxGrad)" d="M32 6L12 22l6 28h28l6-28L32 6zm0 8l12 10-3 14H23l-3-14L32 14z"/>
  <path fill="#fff" opacity=".9" d="M24 28c2 4 4 6 8 6s6-2 8-6c-1 6-4 10-8 10s-7-4-8-10z"/>
  <circle cx="26" cy="26" r="2.5" fill="#1a1f2e"/>
  <circle cx="38" cy="26" r="2.5" fill="#1a1f2e"/>
  <path fill="#fff" opacity=".35" d="M20 18l6 4-4 2zm24 0l-6 4 4 2z"/>
</svg>
